<svg xmlns="http://www.w3.org/2000/svg" id="arrow-circle-down" viewBox="0 0 24 24" width="300" height="300" version="1.1" xmlns:xlink="http://www.w3.org/1999/xlink" xmlns:svgjs="http://svgjs.dev/svgjs"><g width="100%" height="100%" transform="matrix(1,0,0,1,0,0)"><path d="M12,24C5.383,24,0,18.617,0,12S5.383,0,12,0s12,5.383,12,12-5.383,12-12,12ZM12,1C5.935,1,1,5.935,1,12s4.935,11,11,11,11-4.935,11-11S18.065,1,12,1Zm3.73,12.092c.602-.602,.602-1.58,0-2.182l-4.876-4.877-.707,.707,4.876,4.877c.211,.212,.211,.556,0,.768l-4.873,4.872,.707,.707,4.873-4.872Z" fill="#ffffff" fill-opacity="0.5" data-original-color="#000000ff" stroke="none" stroke-opacity="1"/></g></svg>